<!-- public/discobowl.svg -->
<svg xmlns="http://www.w3.org/2000/svg" viewBox="0 0 479.02 656.95">
  <path fill="#A3968D" d="M248.5,590.96c-21.4,10.53-42.63,21.58-64.14,31.86-11.24,5.37-22.81,10.76-34.36,15.13,28.02-20.11,60.5-33.19,91.99-47,.25-1.71-2.3-.97-3.49-.99-8.52-.14-16.37,7.14-24.13,10.88-2.46,1.19-20.48,8.83-21.37,8.12-1.91-1.52,1.4-2.15,1.97-2.48,4.82-2.83,24.41-12.02,26.79-14.69.24-.27-.82-1.74.21-2.35.78-.47,3.71,1.17,4.03-1.46-2.13.04-4.05-1.36-6.23-.83-2.93.7-14.24,8.83-18.09,10.99-26.32,14.75-53.42,30.67-82.16,39.84l68.48-38.03c.23-1.86-2.04-.79-3.04-.54-16.25,3.93-33.15,12.36-49.56,16.54-3.93.26-4.13-2.74-1.65-5.02,11.22-6.07,22.4-12.26,33.9-17.82,3.46-1.68,27.02-11.18,27.36-12.65.54-2.38-4.24-3.72-6.26-3.34-2.67.5-15.41,8.46-19.77,10.32-8.21,3.5-17.28,6.39-25.96,8.53-.5-2.66.56-1.74,2-2.44,12.46-6.07,25.26-11.51,37.93-17.12,3.54-2.72-2.49-3.83-5.15-3.22-33.19,15.76-65.86,32.64-99.78,46.78-.58-2.38,2.09-2.73,3.7-3.77,22.63-14.56,50.93-27.43,75.62-38.4,5.74-2.55,11.8-4.6,17.67-6.84l-13.07-7.49-2.18-.35c-20.91,9.85-41.85,19.88-63.07,29.04-3.34,1.44-26.51,11.74-27.67,10.82-1.92-1.53,1.42-2.15,1.97-2.48,26.33-15.78,54.94-26.82,83.02-39.03,1.68-.72-.87-3.79-1.31-4.17-1.27-1.07-3.93-2.34-5.7-1.91l-65.99,29.58c17.5-15.44,40.9-22.17,62-31.49,2.23-1.5-2.05-3.6-2.96-4.08-30.31,7.02-59.28,19.13-89.83,25.29-5.21,1.05-14.9.64-18.46,3.27-1.25.92-1.67,2.83-3.23,4.03-8.14,6.22-18.8,6.03-28.51,7.99,5.34-6.35,16.83-5.99,23.28-9.21,3.39-1.7,6.19-7.26,9.67-8.33,5.86-1.81,15.22.58,21.79-1.12,5.18-1.34,11.71-5.31,16.99-7.09,20.5-6.88,42.11-12.87,63.26-17.24,1.41-1.33-7.7-7.59-9.31-7.78l-85.17,23.81-1.51-2.02c26.38-11.3,54.12-19.2,82-26.03.4-.39-3.28-4.33-4.52-4l-54.47,7.01c-.28-3.32,4.09-3.47,6.37-4.12,12.98-3.67,26.99-4.06,40.12-6.88,1.36-.29,2.52.12,3.48-1.5-1.68-1.04-2.36-3.34-3.54-4.48-3.61-3.49-8.18-9.37-11.47-14.5-45.55-71.04-36.4-164.05,2.51-235.54,1.74-3.19,5.16-6.3,6.3-8.7,1.53-3.23,1.21-7.6,2.97-10.95-4.82-14.42-13.07-28.02-18.53-42.05-.69-1.77-1.04-6.01-1.27-6.23-.37-.33-3.18.31-4.96-.58-.31-.16-4.64-4.72-4.87-5.08-5.9-9.08,4.79-15.39,11.15-19.61,4.5-2.98,17.14-10.49,22.11-9.53,1.05.2,5.45,4.88,5.88,6.03.57,1.55-.33,3.19-.02,4.89,1.75,9.62,9.99,13.78,16.27,20.83,7.38,8.3,14.28,17.1,21.46,25.58l5.88-1.72c3.48-23.86,8.97-47.56,12-71.49,3.8-30.02,4.16-60.72,1.13-90.85-.32-3.16-.88-10.8-1.89-13.11-1.41-3.22-5.63-3.3-6.1-7.99-.41-4.16,2.92-5.85,2.81-7.73s-3.16-7.59-3.57-10.42c-.94-6.46-.65-16.2,6.05-19.47,3.86-1.88,19.6-3.29,23.98-2.55,8.14,1.39,12.72,7.06,12.82,15.27.04,3.09-1.51,6.14-1.08,8.91s4.82,6.92,4.96,11.18c.11,3.31-2.21,4.11-2.77,6.16-1.21,4.48,12.96,54.72,15.54,63.01,11.57,37.08,30.54,69.8,43.27,106.24,2.21-2.04,9.46.34,9.96-.02,4.29-3.11,15.03-92.81,16.64-104.54-.34-2.01-7.91-3.92-6.58-12.87.28-1.87,1.82-3.38,1.94-5.12.3-4.39-1.89-13.17-1.8-17.98.28-14.59,44.58-21.67,45.88,2,.25,4.52-2.46,11.63-2.12,13.88.17,1.15,9.16,3.38,5.34,11.45-.92,1.95-3.33,1.63-3.35,3.66-.12,10.58,6.56,34.44,9.81,45.31,7.27,24.27,24.4,53.64,28.97,76.03.55,2.7.87,12.7,1.33,13.17.22.22,2.82-.05,3.98.49,1.7.79,9.57,8.27,10.99,10.04,10.78,13.48,1.85,28.33-7.49,39.51-23.58,28.24-73,36.45-107.97,38.03-5.88.27-43.27.39-45.54-2.06-1.4-1.51,1.11-2.46,2.48-2.48,19.81-.26,39.78.42,59.5-2.52-.46-.78-4.19-3.98-4.49-3.97-.64.03-5.83,10.1-3.5-4.02-7.59.43-14.92-.06-20.99-5,.67,2.69-9.27,15.95-11.01,13.99-.09-4.58,5.12-11.49,5.08-15.51-.04-3.46-5.91-9.36-6.1-13.48-.82-.62-5.41,2.2-6.48,3-1.99,1.49-17.01,18.33-17.23,19.65-.35,2.1,1.8,5.06,1.72,7.34-2.56,2.32-13.99-13.37-18.55-14.02-2.33-.33-9.89,2.49-12.45,3.54-.95.39-2.29.1-1.99,1.47,7.65,2.22,18.43,3.75,25.57,6.94,1.08.48,3.69,1.99,2.42,3.07-.97.83-22.07-2.73-25.2-3.29-27.46-4.85-63.95-18.81-79.6-43.4-3.98-6.26-4-11.42-7.69-17.31-2.32,10.52,3.24,21.24,10.5,28.5l-5.99-1.5c1.48,3.31-4.43,14.4-3.58,15.99.39.73,6.82,5.56,7.56,5,1.17-3.31,3.91-13.39,8.36-12.76,20.35,12.05,41.21,23.08,64.47,28.45,50.12,11.57,109.25,11.61,158.15-5.23,32.23-11.1,71.97-40.35,37.58-74.5-1.93-1.92-9.92-7.02-10.53-8.47-.77-1.83,1.2-1.72,2.45-1.45,6.42,1.43,19.51,15.63,22.43,21.58,3.61,7.35,3,8.5,8.1,15.9,13.35,19.4,23.18,41.2,30.31,63.69,11.25,35.51,9.4,74.07-.57,111-1.76,6.5-10.85,29.28-10.76,33.23.12,5.07,2.73,18.39,5.58,22.51,3.9,5.63,11.36,5.49,16.2,7.8,3.81,1.82,2.67,3.8-1.21,4.28-6.47.8-13.34.35-18.54,5.46-7.64,7.51-9.54,34.4-11.14,35.36-.89.53-2.69-.02-3.85.15.3-6.45,3.71-39.91-7.44-39.07-1.14.09-11.59,15.39-14.05,18.08-38.52,42.21-93.75,61.23-143.56,86.44-13.34,6.75-26.4,14.27-39.48,21.53-1.91.38-1.91-.59-1-2,1.1-1.7,10.92-9.3,13.2-10.8,7.03-4.62,17.59-9.77,25.29-13.71,15.02-7.68,30.82-14.16,46.02-21.48l-8.22.29c-50.99,18.22-98.34,45.79-148.78,64.71,6.11-6.03,14.89-10.88,22.64-14.85,24.37-12.47,51.17-21.94,75.68-34.32l35.67-14.83h-23.5Z"/>
</svg>